<svg width="166" height="66" viewBox="0 0 166 66" fill="none" xmlns="http://www.w3.org/2000/svg">
<path fill-rule="evenodd" clip-rule="evenodd" d="M8.76929 0.553711C4.35101 0.553711 0.769287 4.13543 0.769287 8.55371V57.446C0.769287 61.8643 4.351 65.446 8.76928 65.446H157.846C162.264 65.446 165.846 61.8643 165.846 57.446V8.55371C165.846 4.13543 162.264 0.553711 157.846 0.553711H8.76929ZM30.2656 28.1328C30.7396 28.4818 31.0078 28.9714 31.0703 29.6016H34.3125C34.2969 28.6484 34.0417 27.8099 33.5469 27.0859C33.0521 26.362 32.3594 25.7969 31.4688 25.3906C30.5833 24.9844 29.5469 24.7812 28.3594 24.7812C27.1927 24.7812 26.151 24.9844 25.2344 25.3906C24.3177 25.7969 23.5964 26.362 23.0703 27.0859C22.5495 27.8099 22.2917 28.6562 22.2969 29.625C22.2917 30.8073 22.6797 31.7474 23.4609 32.4453C24.2422 33.1432 25.3073 33.6562 26.6562 33.9844L28.3984 34.4219C28.9818 34.5625 29.474 34.7188 29.875 34.8906C30.2812 35.0625 30.5885 35.2708 30.7969 35.5156C31.0104 35.7604 31.1172 36.0625 31.1172 36.4219C31.1172 36.8073 31 37.1484 30.7656 37.4453C30.5312 37.7422 30.2005 37.974 29.7734 38.1406C29.3516 38.3073 28.8542 38.3906 28.2812 38.3906C27.6979 38.3906 27.1745 38.3021 26.7109 38.125C26.2526 37.9427 25.8854 37.6745 25.6094 37.3203C25.3385 36.9609 25.1849 36.513 25.1484 35.9766H21.875C21.901 37.1276 22.1797 38.0938 22.7109 38.875C23.2474 39.651 23.9922 40.237 24.9453 40.6328C25.9036 41.0286 27.0286 41.2266 28.3203 41.2266C29.6224 41.2266 30.7344 41.0312 31.6562 40.6406C32.5833 40.2448 33.2917 39.6901 33.7812 38.9766C34.276 38.2578 34.526 37.4089 34.5312 36.4297C34.526 35.763 34.4036 35.1719 34.1641 34.6562C33.9297 34.1406 33.599 33.6927 33.1719 33.3125C32.7448 32.9323 32.2396 32.612 31.6562 32.3516C31.0729 32.0911 30.4323 31.8828 29.7344 31.7266L28.2969 31.3828C27.9479 31.3047 27.6198 31.2109 27.3125 31.1016C27.0052 30.987 26.7344 30.8542 26.5 30.7031C26.2656 30.5469 26.0807 30.362 25.9453 30.1484C25.8151 29.9349 25.7552 29.6849 25.7656 29.3984C25.7656 29.0547 25.8646 28.7474 26.0625 28.4766C26.2656 28.2057 26.5573 27.9948 26.9375 27.8438C27.3177 27.6875 27.7839 27.6094 28.3359 27.6094C29.1484 27.6094 29.7917 27.7839 30.2656 28.1328ZM50.0723 25H46.6895V35.1016C46.6895 35.7109 46.554 36.2526 46.2832 36.7266C46.0176 37.2005 45.64 37.5729 45.1504 37.8438C44.666 38.1146 44.0957 38.25 43.4395 38.25C42.7884 38.25 42.2181 38.1146 41.7285 37.8438C41.2389 37.5729 40.8587 37.2005 40.5879 36.7266C40.3223 36.2526 40.1895 35.7109 40.1895 35.1016V25H36.8066V35.3906C36.8066 36.5573 37.0827 37.5781 37.6348 38.4531C38.1868 39.3281 38.9603 40.0104 39.9551 40.5C40.9499 40.9844 42.1113 41.2266 43.4395 41.2266C44.7624 41.2266 45.9212 40.9844 46.916 40.5C47.9108 40.0104 48.6842 39.3281 49.2363 38.4531C49.7936 37.5781 50.0723 36.5573 50.0723 35.3906V25ZM52.8555 25V41H59.6914C60.8893 41 61.8971 40.8073 62.7148 40.4219C63.5326 40.0365 64.1497 39.513 64.5664 38.8516C64.9883 38.1849 65.1992 37.4271 65.1992 36.5781C65.1992 35.7917 65.0326 35.1146 64.6992 34.5469C64.3659 33.974 63.931 33.5286 63.3945 33.2109C62.8633 32.8932 62.293 32.7214 61.6836 32.6953V32.5391C62.2409 32.4141 62.7357 32.2031 63.168 31.9062C63.6055 31.6042 63.9492 31.2188 64.1992 30.75C64.4492 30.276 64.5742 29.7266 64.5742 29.1016C64.5742 28.2995 64.3763 27.5911 63.9805 26.9766C63.5846 26.3568 62.9935 25.8724 62.207 25.5234C61.4206 25.1745 60.4388 25 59.2617 25H52.8555ZM58.9961 38.2344H56.2383V33.9844H59.0742C59.6159 33.9844 60.082 34.0807 60.4727 34.2734C60.8685 34.4661 61.1732 34.7318 61.3867 35.0703C61.6003 35.4089 61.707 35.7995 61.707 36.2422C61.707 36.8464 61.4909 37.3307 61.0586 37.6953C60.6263 38.0547 59.9388 38.2344 58.9961 38.2344ZM58.7461 31.6953H56.2383V27.7344H58.8086C59.5586 27.7344 60.1367 27.9115 60.543 28.2656C60.9544 28.6198 61.1602 29.0859 61.1602 29.6641C61.1602 30.0859 61.0534 30.4479 60.8398 30.75C60.6315 31.0521 60.3451 31.2865 59.9805 31.4531C59.6211 31.6146 59.2096 31.6953 58.7461 31.6953ZM75.2754 28.1328C75.7494 28.4818 76.0176 28.9714 76.0801 29.6016H79.3223C79.3066 28.6484 79.0514 27.8099 78.5566 27.0859C78.0619 26.362 77.3691 25.7969 76.4785 25.3906C75.5931 24.9844 74.5566 24.7812 73.3691 24.7812C72.2025 24.7812 71.1608 24.9844 70.2441 25.3906C69.3275 25.7969 68.6061 26.362 68.0801 27.0859C67.5592 27.8099 67.3014 28.6562 67.3066 29.625C67.3014 30.8073 67.6895 31.7474 68.4707 32.4453C69.252 33.1432 70.3171 33.6562 71.666 33.9844L73.4082 34.4219C73.9915 34.5625 74.4837 34.7188 74.8848 34.8906C75.291 35.0625 75.5983 35.2708 75.8066 35.5156C76.0202 35.7604 76.127 36.0625 76.127 36.4219C76.127 36.8073 76.0098 37.1484 75.7754 37.4453C75.541 37.7422 75.2103 37.974 74.7832 38.1406C74.3613 38.3073 73.8639 38.3906 73.291 38.3906C72.7077 38.3906 72.1842 38.3021 71.7207 38.125C71.2624 37.9427 70.8952 37.6745 70.6191 37.3203C70.3483 36.9609 70.1947 36.513 70.1582 35.9766H66.8848C66.9108 37.1276 67.1895 38.0938 67.7207 38.875C68.2572 39.651 69.002 40.237 69.9551 40.6328C70.9134 41.0286 72.0384 41.2266 73.3301 41.2266C74.6322 41.2266 75.7441 41.0312 76.666 40.6406C77.5931 40.2448 78.3014 39.6901 78.791 38.9766C79.2858 38.2578 79.5358 37.4089 79.541 36.4297C79.5358 35.763 79.4134 35.1719 79.1738 34.6562C78.9395 34.1406 78.6087 33.6927 78.1816 33.3125C77.7546 32.9323 77.2494 32.612 76.666 32.3516C76.0827 32.0911 75.4421 31.8828 74.7441 31.7266L73.3066 31.3828C72.9577 31.3047 72.6296 31.2109 72.3223 31.1016C72.015 30.987 71.7441 30.8542 71.5098 30.7031C71.2754 30.5469 71.0905 30.362 70.9551 30.1484C70.8249 29.9349 70.765 29.6849 70.7754 29.3984C70.7754 29.0547 70.8744 28.7474 71.0723 28.4766C71.2754 28.2057 71.5671 27.9948 71.9473 27.8438C72.3275 27.6875 72.7936 27.6094 73.3457 27.6094C74.1582 27.6094 74.8014 27.7839 75.2754 28.1328ZM92.5117 30.6016H95.9336C95.8242 29.6745 95.5742 28.8516 95.1836 28.1328C94.7982 27.4141 94.2982 26.8073 93.6836 26.3125C93.069 25.8125 92.3633 25.4323 91.5664 25.1719C90.7747 24.9115 89.9154 24.7812 88.9883 24.7812C87.582 24.7812 86.3164 25.1042 85.1914 25.75C84.0664 26.3906 83.1758 27.3229 82.5195 28.5469C81.8633 29.7708 81.5352 31.2552 81.5352 33C81.5352 34.7396 81.8581 36.2214 82.5039 37.4453C83.1549 38.6693 84.0404 39.6042 85.1602 40.25C86.2852 40.8958 87.5612 41.2188 88.9883 41.2188C90.0143 41.2188 90.9336 41.0651 91.7461 40.7578C92.5638 40.4453 93.2669 40.0234 93.8555 39.4922C94.4492 38.9557 94.9206 38.349 95.2695 37.6719C95.6237 36.9896 95.8451 36.2812 95.9336 35.5469L92.5117 35.5312C92.4336 35.9583 92.293 36.3385 92.0898 36.6719C91.8919 37.0052 91.6419 37.2891 91.3398 37.5234C91.0378 37.7526 90.6914 37.9271 90.3008 38.0469C89.9154 38.1667 89.4961 38.2266 89.043 38.2266C88.2357 38.2266 87.5247 38.0286 86.9102 37.6328C86.2956 37.237 85.8164 36.651 85.4727 35.875C85.1341 35.099 84.9648 34.1406 84.9648 33C84.9648 31.8906 85.1341 30.9479 85.4727 30.1719C85.8112 29.3906 86.2878 28.7969 86.9023 28.3906C87.5169 27.9792 88.2383 27.7734 89.0664 27.7734C89.5247 27.7734 89.9492 27.8385 90.3398 27.9688C90.7357 28.099 91.0846 28.2865 91.3867 28.5312C91.6888 28.776 91.9362 29.0729 92.1289 29.4219C92.3216 29.7656 92.4492 30.1589 92.5117 30.6016ZM104.672 25H98.3594V41H101.742V35.3281H104.212L107.242 41H110.977L107.582 34.7841C107.631 34.7629 107.679 34.7412 107.727 34.7188C108.596 34.3125 109.26 33.7292 109.719 32.9688C110.177 32.2031 110.406 31.2891 110.406 30.2266C110.406 29.1693 110.18 28.25 109.727 27.4688C109.279 26.6823 108.625 26.0755 107.766 25.6484C106.911 25.2161 105.88 25 104.672 25ZM101.742 32.6094H104.039C104.685 32.6094 105.221 32.5208 105.648 32.3438C106.076 32.1667 106.393 31.901 106.602 31.5469C106.815 31.1927 106.922 30.7526 106.922 30.2266C106.922 29.6953 106.815 29.2474 106.602 28.8828C106.393 28.5182 106.073 28.2422 105.641 28.0547C105.214 27.862 104.674 27.7656 104.023 27.7656H101.742V32.6094ZM112.797 41H116.18V25H112.797V41ZM125.369 25H118.963V41H125.799C126.997 41 128.005 40.8073 128.822 40.4219C129.64 40.0365 130.257 39.513 130.674 38.8516C131.096 38.1849 131.307 37.4271 131.307 36.5781C131.307 35.7917 131.14 35.1146 130.807 34.5469C130.473 33.974 130.038 33.5286 129.502 33.2109C128.971 32.8932 128.4 32.7214 127.791 32.6953V32.5391C128.348 32.4141 128.843 32.2031 129.275 31.9062C129.713 31.6042 130.057 31.2188 130.307 30.75C130.557 30.276 130.682 29.7266 130.682 29.1016C130.682 28.2995 130.484 27.5911 130.088 26.9766C129.692 26.3568 129.101 25.8724 128.314 25.5234C127.528 25.1745 126.546 25 125.369 25ZM125.104 38.2344H122.346V33.9844H125.182C125.723 33.9844 126.189 34.0807 126.58 34.2734C126.976 34.4661 127.281 34.7318 127.494 35.0703C127.708 35.4089 127.814 35.7995 127.814 36.2422C127.814 36.8464 127.598 37.3307 127.166 37.6953C126.734 38.0547 126.046 38.2344 125.104 38.2344ZM124.854 31.6953H122.346V27.7344H124.916C125.666 27.7344 126.244 27.9115 126.65 28.2656C127.062 28.6198 127.268 29.0859 127.268 29.6641C127.268 30.0859 127.161 30.4479 126.947 30.75C126.739 31.0521 126.452 31.2865 126.088 31.4531C125.729 31.6146 125.317 31.6953 124.854 31.6953ZM144.289 25H133.508V41H144.32V38.2109H136.891V34.3906H143.734V31.6016H136.891V27.7891H144.289V25Z" fill="white"/>
</svg>
